<?xml version="1.0" encoding="UTF-8"?><svg id="UNCX_Network" xmlns="http://www.w3.org/2000/svg" xmlns:xlink="http://www.w3.org/1999/xlink" viewBox="0 0 382 453.13"><defs><style>.cls-1{fill:url(#linear-gradient-2);}.cls-2{fill:#f4f4f4;}.cls-3{fill:url(#linear-gradient-6);}.cls-4{fill:url(#linear-gradient-5);}.cls-5{fill:url(#linear-gradient-7);}.cls-6{fill:url(#linear-gradient-3);}.cls-7{fill:url(#linear-gradient);}.cls-8{fill:url(#linear-gradient-4);}</style><linearGradient id="linear-gradient" x1="375.73" y1="139.02" x2="0" y2="139.02" gradientUnits="userSpaceOnUse"><stop offset="0" stop-color="#00c68d"/><stop offset="1" stop-color="#00f847"/></linearGradient><linearGradient id="linear-gradient-2" x1="182.03" y1="92.17" x2="177.07" y2="120.25" xlink:href="#linear-gradient"/><linearGradient id="linear-gradient-3" x1="191.66" y1="203.02" x2="287.2" y2="168.25" gradientUnits="userSpaceOnUse"><stop offset="0" stop-color="#00f847"/><stop offset="1" stop-color="#fff"/></linearGradient><linearGradient id="linear-gradient-4" x1="339.35" y1="396.37" x2="339.35" y2="310.95" xlink:href="#linear-gradient"/><linearGradient id="linear-gradient-5" x1="244.65" y1="398.29" x2="244.65" y2="309.03" xlink:href="#linear-gradient"/><linearGradient id="linear-gradient-6" x1="144.81" y1="396.37" x2="144.81" y2="310.95" xlink:href="#linear-gradient"/><linearGradient id="linear-gradient-7" x1="37.43" y1="398.29" x2="37.43" y2="310.95" xlink:href="#linear-gradient"/></defs><g id="UNCX_LOGO_PUNCHED_OUT"><g id="logo"><path id="triangle" class="cls-7" d="m366.02,75.3l-4.72,6.19c-6.73-3.98-13.63-1.46-20.81.95,2.18-4.38,9.92-12.82,5.44-16.15-10.71-7.99-26.8-13.92-45.14-11,1.91-4.37,11.09-13.29,4.94-16.68-11.82-6.49-31.61-13.99-49.6-4.62l-2.1-24.46c-.16-1.74-2.15-2.64-3.54-1.6l-28.15,20.79-7.45-13.53c-.84-1.58-3.07-1.58-3.92,0l-9.48,17.23c-9.94,3.21-19.02,8.75-26.8,17.1L83.83,13.94c-2.28-.89-3.96,2.18-1.99,3.61,24.53,17.66,74.35,53.5,74.75,53.81,0,.02-50.84,80.13-50.84,80.14-7.83,12.53-3.62,23.18,9.45,29.98,7.39,3.81,15.68,5.21,23.84,4.37,11.47-1.19,34.22-5.28,69.03-16.85h.02c.65-.19,16.28-4.49,25.06-15.89.05-.11.13-.17.19-.3,3.61-5.17,7.01-21.2-.06-36.79-.95-2.04,1.2-4.19,3.29-3.21,10.62,5.11,31.61,17.5,44.54,40.84.82,1.49,5.11,11.03,8.5,21.6l-64.53,84.4c-2.78,3.66-5.97,6.76-9.43,9.29-19.87,14.7-49.03,11.61-65.02-9.29L9.72,75.3C-13.86,44.48,8.14,0,46.93,0h281.87c38.8,0,60.78,44.48,37.22,75.3Z"/><path id="eye" class="cls-1" d="m188.06,114.4s-10.36,9.18-23.88,2.64l26.09-23.42s8.15,11.14-2.22,20.78Z"/><path id="neck" class="cls-6" d="m289.61,175.25l-64.53,84.4c-2.78,3.66-5.97,6.76-9.43,9.29,6.95-31.12,7.18-74.86-7.58-99.94h.02c.65-.19,16.28-4.49,25.06-15.89.05-.11.13-.17.19-.3,3.61-5.17,7.01-21.2-.06-36.79-.95-2.04,1.2-4.19,3.29-3.21,10.62,5.11,31.61,17.5,44.54,40.84.82,1.49,5.11,11.03,8.5,21.6Z"/></g><g id="network"><path id="k" class="cls-2" d="m326.14,436.19l9.84-10.15h5.11l-11.49,11.52,11.56,13.93h-5.19l-9.08-11.29-.76.76v10.53h-3.89v-25.45h3.89v10.15Z"/><path id="r" class="cls-2" d="m284.65,426.04c3.09,0,5.08.38,6.72,1.49,2.78,1.87,3.01,4.88,3.01,5.99,0,3.66-2.25,6.33-5.65,7.1l7.94,10.87h-4.69l-7.29-10.42h-.69v10.42h-3.89v-25.45h4.54Zm-.65,11.68h1.22c1.07,0,5.42-.12,5.42-4.16,0-3.59-3.4-3.93-5.3-3.93h-1.34v8.09Z"/><path id="o" class="cls-2" d="m253.22,438.78c0,7.48-5.61,13.2-13.24,13.2s-13.24-5.72-13.24-13.2,5.61-13.2,13.24-13.2,13.24,5.72,13.24,13.2Zm-3.89,0c0-5.65-3.89-9.61-9.35-9.61s-9.35,3.97-9.35,9.61,3.89,9.61,9.35,9.61,9.35-3.97,9.35-9.61Z"/><path id="w" class="cls-2" d="m172.61,426.04l6.71,17.02,6.87-18.24,6.64,18.24,6.94-17.02h4.2l-11.37,27.09-6.64-18.05-6.72,18.05-10.84-27.09h4.2Z"/><path id="t" class="cls-2" d="m138.61,429.7v21.79h-3.89v-21.79h-5.84v-3.66h15.57v3.66h-5.84Z"/><path id="e" class="cls-2" d="m104.01,429.7h-10.15v6.45h9.84v3.66h-9.84v8.01h10.15v3.66h-14.04v-25.45h14.04v3.66Z"/><path id="n" class="cls-2" d="m39.36,451.49v-27.17l18.47,19.34v-17.63h3.89v27.01l-18.47-19.34v17.78h-3.89Z"/></g><g id="uncx"><path id="x" class="cls-8" d="m328.08,351.04l-26.51-40.09h23.69l14.09,24.33,14.09-24.33h23.69l-26.51,40.09,31.38,45.34h-23.69l-18.95-29.58-18.95,29.58h-23.69l31.38-45.34Z"/><path id="c" class="cls-4" d="m277.5,393.68c-7.56,3.84-13.7,4.61-18.83,4.61-15.75,0-26.38-5.38-33.55-12.42-7.68-7.43-13.32-18.7-13.32-32.4s5.63-24.72,13.32-32.15c7.55-7.3,18.57-12.3,31.89-12.3,5.63,0,12.17,1.15,20.49,4.74v22.8c-4.35-4.61-10.89-9.09-19.98-9.09-7.17,0-12.93,2.31-17.42,6.66-4.74,4.61-8.07,11.53-8.07,19.72,0,8.84,3.59,15.11,7.43,18.83,1.79,1.79,7.94,7.17,18.44,7.17,5.12,0,12.04-1.41,19.59-8.84v22.67Z"/><path id="n-2" class="cls-3" d="m103.19,396.37v-85.42h17.16l46.36,55.07v-55.07h19.72v85.42h-17.16l-46.36-55.33v55.33h-19.72Z"/><path id="u" class="cls-5" d="m73.54,361.54c0,8.2-1.03,18.31-9.48,27.02-8.2,8.45-17.67,9.73-26.64,9.73s-18.44-1.28-26.64-9.73c-8.45-8.71-9.48-18.83-9.48-27.02v-50.59h19.72v50.07c0,3.71.26,9.99,4.48,14.34,3.46,3.71,8.2,4.48,11.91,4.48s8.45-.77,11.91-4.48c4.23-4.36,4.48-10.63,4.48-14.34v-50.07h19.72v50.59Z"/></g><g id="TM"><path id="M" class="cls-2" d="m365.24,434.64l1.82-9.32,3.02,6.73,3.04-6.73,1.64,9.32h-1.35l-.88-5.23-2.52,5.63-2.5-5.64-.91,5.24h-1.35Z"/><path id="T" class="cls-2" d="m362.34,427.22v7.42h-1.33v-7.42h-1.99v-1.25h5.3v1.25h-1.99Z"/></g></g></svg>