<?xml version="1.0" encoding="utf-8"?>
<!-- Generator: Adobe Illustrator 25.4.6, SVG Export Plug-In . SVG Version: 6.00 Build 0)  -->
<svg version="1.1" id="Layer_1" xmlns="http://www.w3.org/2000/svg" xmlns:xlink="http://www.w3.org/1999/xlink" x="0px" y="0px"
	 viewBox="0 0 116.4 131.4" style="enable-background:new 0 0 116.4 131.4;" xml:space="preserve">
<style type="text/css">
	.st0{fill-rule:evenodd;clip-rule:evenodd;fill:#00FF00;}
	.st1{fill-rule:evenodd;clip-rule:evenodd;fill:#FFFFFF;}
	.st2{fill:url(#SVGID_1_);}
	.st3{fill-rule:evenodd;clip-rule:evenodd;fill:#66FF66;}
	.st4{fill:url(#SVGID_00000067230967991169753550000012459987261234392966_);}
	.st5{fill:url(#SVGID_00000132789826574580146550000006392289716316984751_);}
	.st6{fill:url(#SVGID_00000149354084432896675930000007631472773535972287_);}
	.st7{fill:url(#SVGID_00000170237464931179882830000006641429600741018247_);}
	.st8{fill-rule:evenodd;clip-rule:evenodd;}
</style>
<path class="st0" d="M17.1,68.8c-0.9,0.7-2.1,0.9-3.2,0.5l-3.2-1.1c-1.3-0.4-1.9-1.8-1.5-3.1c0.2-0.7,0.8-1.3,1.5-1.5l3.2-1.1
	c1.9-0.6,3.9,0.4,4.5,2.2C18.9,66.2,18.4,67.9,17.1,68.8"/>
<path class="st1" d="M16.4,95.4c-0.5-0.9-0.3-2,0.6-2.6l7.4-5.3c1.3-0.9,3.1-0.7,4.1,0.7c0.1,0.1,0.1,0.2,0.2,0.2
	c0.8,1.4,0.3,3.2-1.1,4c0,0,0,0,0,0l-0.3,0.1l-8.3,3.8C18,96.7,16.9,96.3,16.4,95.4"/>
<path class="st1" d="M28.6,44.3L28.6,44.3c-0.4,0.7-1.1,1.2-1.9,1.4c-0.8,0.2-1.7,0-2.3-0.5l-7.4-5.3c-0.9-0.6-1.1-1.9-0.4-2.8
	c0.6-0.8,1.6-1,2.4-0.6l8.3,3.7c1.5,0.7,2.1,2.4,1.5,3.9c0,0,0,0,0,0C28.7,44.2,28.6,44.3,28.6,44.3"/>
<linearGradient id="SVGID_1_" gradientUnits="userSpaceOnUse" x1="21.3488" y1="-137.9001" x2="18.8788" y2="-117.7001" gradientTransform="matrix(1 0 0 -1 0 2.55)">
	<stop  offset="0.29" style="stop-color:#66FF00"/>
	<stop  offset="1" style="stop-color:#66FF66"/>
</linearGradient>
<path class="st2" d="M36.1,106.5l-0.8,24.9H11.9c-6.5,0-11.8-5.3-11.9-11.8l0,0v-5.3C12.4,114.3,24.8,111.7,36.1,106.5"/>
<path class="st1" d="M99.1,95.4c-0.5,0.9-1.6,1.2-2.6,0.8l-8.3-3.8c-1.5-0.7-2.1-2.4-1.5-3.8l0.2-0.3c0.8-1.4,2.6-1.9,4-1.1
	c0,0,0,0,0,0l0.2,0.2l7.4,5.3C99.4,93.4,99.6,94.6,99.1,95.4"/>
<path class="st1" d="M98.5,39.9l-7.4,5.3c-1.3,0.9-3.2,0.6-4.1-0.7l-0.1-0.2l0,0c-0.8-1.4-0.4-3.2,1-4c0,0,0,0,0,0
	c0.1-0.1,0.2-0.1,0.3-0.2l8.3-3.7c1-0.5,2.2,0,2.6,1C99.5,38.3,99.3,39.4,98.5,39.9"/>
<path class="st3" d="M107.5,65.9c0,1-0.7,2-1.6,2.3l-3.2,1.1c-1.9,0.6-3.9-0.4-4.5-2.3c-0.6-1.8,0.4-3.8,2.2-4.5
	c0.7-0.3,1.6-0.3,2.3,0l3.2,1.1C106.8,63.9,107.5,64.8,107.5,65.9"/>
<linearGradient id="SVGID_00000011754121304117427130000010622720362711383189_" gradientUnits="userSpaceOnUse" x1="53.2503" y1="16.0899" x2="4.5103" y2="-109.4701" gradientTransform="matrix(1 0 0 -1 0 2.55)">
	<stop  offset="0.29" style="stop-color:#009900"/>
	<stop  offset="1" style="stop-color:#006600"/>
</linearGradient>
<path style="fill:url(#SVGID_00000011754121304117427130000010622720362711383189_);" d="M28.8,42c0.2,0.8,0.2,1.6-0.2,2.4l0,0
	c-0.4,0.7-1.1,1.2-1.9,1.4c-0.8,0.2-1.7,0-2.3-0.5l-7.4-5.3c-0.9-0.6-1.1-1.9-0.4-2.8c0.6-0.8,1.6-1,2.4-0.6l8.3,3.7
	C28,40.6,28.6,41.2,28.8,42 M28.8,90.8c-0.3,0.8-0.8,1.4-1.6,1.8l-8.3,3.8c-1,0.5-2.2,0.1-2.7-0.9c-0.4-0.9-0.1-2,0.7-2.5l7.4-5.3
	c1.3-0.9,3.1-0.7,4.1,0.7c0.1,0.1,0.1,0.2,0.2,0.2C29,89.1,29.1,90,28.8,90.8 M13.8,69.3l-3.2-1.1c-1.3-0.4-1.9-1.8-1.5-3.1
	c0.2-0.7,0.8-1.3,1.5-1.5l3.2-1.1c1.9-0.7,3.9,0.3,4.6,2.2c0.7,1.9-0.3,3.9-2.2,4.6c0,0-0.1,0-0.1,0C15.4,69.5,14.6,69.5,13.8,69.3
	 M50.7,0H32.3c0,17.9-14.5,32.3-32.3,32.3v82c12.4,0,24.8-2.6,36.1-7.8l1.4-42.4c-2.5-1.2-4.3-4.6-4.3-8.5c0-4.4,2.3-8,5.3-8.8
	c0.4-2.6,1.3-5.2,2.7-7.4c-1.3-0.2-2.5-0.9-3.2-2.1c-2.7-4-6.4-8.1-9.2-14.7c-0.5-1.2-0.4-2.5,0.4-3.5c0.6-0.8,1.7-0.9,2.5-0.3
	c0.1,0.1,0.2,0.1,0.2,0.2c4.3,4.1,9.6,5.4,12.5,9.3c0.2-0.5,0.5-0.9,0.8-1.4c1.7-2.2,4.6-3,7.2-1.9c1-3.3,4.4-5.1,7.7-4.2
	c2,0.6,3.6,2.2,4.2,4.2c1.3-0.6,2.8-0.7,4.2-0.2c3.3-6.4,7.5-12.3,12.3-17.7C71.4,2.4,61.1,0,50.7,0"/>
<path class="st3" d="M17.1,68.8c-0.9,0.7-2.1,0.9-3.2,0.5l-3.2-1.1c-1.3-0.4-1.9-1.8-1.5-3.1c0.2-0.7,0.8-1.3,1.5-1.5l3.2-1.1
	c1.9-0.6,3.9,0.4,4.5,2.2C18.9,66.2,18.4,67.9,17.1,68.8"/>
<linearGradient id="SVGID_00000128470611163787542960000014580783285035260312_" gradientUnits="userSpaceOnUse" x1="77.9414" y1="-128.0702" x2="94.4514" y2="-33.7102" gradientTransform="matrix(1 0 0 -1 0 2.55)">
	<stop  offset="0.29" style="stop-color:#009900"/>
	<stop  offset="1" style="stop-color:#006600"/>
</linearGradient>
<path style="fill:url(#SVGID_00000128470611163787542960000014580783285035260312_);" d="M105.8,68.2l-3.2,1.1
	c-1.9,0.6-3.9-0.4-4.5-2.3c-0.6-1.8,0.4-3.8,2.2-4.5c0.7-0.3,1.6-0.3,2.3,0l3.2,1.1c1.3,0.4,1.9,1.8,1.5,3.1
	C107.1,67.4,106.5,67.9,105.8,68.2 M99.1,95.4c-0.5,0.9-1.6,1.2-2.6,0.8l-8.3-3.8c-1.5-0.7-2.1-2.4-1.5-3.8l0.2-0.3
	c0.8-1.4,2.6-1.9,4-1.1c0,0,0,0,0,0l0.2,0.2l7.4,5.3C99.4,93.4,99.6,94.6,99.1,95.4 M86.6,42c0.3-0.8,0.8-1.4,1.6-1.8l8.3-3.7
	c1-0.5,2.2,0,2.6,1c0.4,0.9,0.1,1.9-0.6,2.4l-7.4,5.3c-1.3,0.9-3.2,0.6-4.1-0.7l-0.1-0.2l0,0C86.5,43.7,86.4,42.8,86.6,42
	 M86.3,10.5c-1.8-1.2-3.7-2.3-5.7-3.3c-4.8,5.4-9,11.3-12.3,17.7c1.2,0.4,2.2,1.1,3,2.1c0.3,0.4,0.6,0.9,0.8,1.4
	c2.7-3.7,7.5-4.6,11.7-8.5c0.8-0.9,2.2-1,3.2-0.3c0.2,0.1,0.4,0.3,0.6,0.5c0.6,0.7,0.7,1.7,0.3,2.5l-0.1,0.3
	c-2.8,6.5-6.4,10.6-9.2,14.6c-0.7,1.2-1.9,1.9-3.3,2.1c1.4,2.3,2.3,4.8,2.7,7.4c2.7,0.7,4.8,3.7,5.2,7.5c0,0.4,0.1,0.9,0.1,1.3
	c0,3.7-1.6,6.8-3.9,8.2c-0.1,0.1-0.3,0.2-0.4,0.2v0.6l2,59.3c21.8-11.3,35.5-33.8,35.5-58.3l0,0C116.4,43.4,105.1,22.6,86.3,10.5"/>
<linearGradient id="SVGID_00000085215747577999469780000004254211060629663652_" gradientUnits="userSpaceOnUse" x1="58.2599" y1="-159.97" x2="58.2599" y2="-72.34" gradientTransform="matrix(1 0 0 -1 0 2.55)">
	<stop  offset="0.29" style="stop-color:#99FF99"/>
	<stop  offset="1" style="stop-color:#FFFFFF"/>
</linearGradient>
<path style="fill:url(#SVGID_00000085215747577999469780000004254211060629663652_);" d="M70.7,62c0.7,1.3,0.6,2.9-0.2,4.2
	c-2.8,4.2-6.8,7.3-11.9,7.3h-1.1c-4.4-0.4-9-3.2-11.9-6.7c-1.1-1.3-1.2-3.1-0.4-4.5c1.1-1.9,1.7-4,1.7-6.2c0-2-0.5-4-1.5-5.8
	c-0.7-1.3-0.6-2.9,0.2-4.1c0.2,0.3,0.5,0.6,0.8,0.8c2.1,1.6,5,1.7,7.1,0.1c0,2.3,2.3,4.1,5.1,4.1c0.3,0,0.5,0,0.8,0
	c2.5-0.3,4.3-2,4.3-4.1c2.1,1.6,5.1,1.5,7.2-0.1l0.3-0.2c0.4,1.1,0.2,2.3-0.4,3.3c-1.1,1.9-1.7,4-1.7,6.1
	C69.2,58.2,69.7,60.2,70.7,62 M87.5,20c-0.1-0.2-0.3-0.4-0.6-0.5c-1-0.7-2.3-0.5-3.1,0.3c-4.2,4-9,4.8-11.7,8.5
	c-0.2-0.5-0.5-0.9-0.8-1.4c-0.8-1-1.8-1.7-3-2.1c-1.4-0.5-2.8-0.4-4.2,0.2c-1-3.3-4.4-5.1-7.7-4.2c-2,0.6-3.6,2.2-4.2,4.2
	c-2.5-1.1-5.5-0.3-7.2,1.9c-0.3,0.4-0.6,0.9-0.8,1.4c-2.9-4-8.1-5.2-12.5-9.3c-0.6-0.7-1.7-0.8-2.5-0.1c0,0,0,0,0,0
	c-0.1,0.1-0.2,0.2-0.2,0.3c-0.8,1-0.9,2.4-0.4,3.5c2.8,6.6,6.5,10.7,9.2,14.7c0.7,1.2,1.9,1.9,3.2,2.1c-1.4,2.3-2.3,4.8-2.7,7.4
	c-3,0.8-5.3,4.5-5.3,8.8c0,3.9,1.8,7.2,4.3,8.4l-1.4,42.4l-0.8,24.9h15.5c10.4,0,20.7-2.4,29.9-7.2l0.3-0.2l-2-59.3v-0.6
	c0.2-0.1,0.3-0.2,0.4-0.2c2.3-1.4,3.9-4.5,3.9-8.2c0-0.4,0-0.9-0.1-1.3c-0.4-3.8-2.5-6.8-5.2-7.5c-0.4-2.6-1.3-5.2-2.7-7.4
	c1.3-0.2,2.6-0.9,3.3-2.1c2.7-4,6.3-8.1,9.2-14.6l0.1-0.3C88.2,21.7,88.1,20.7,87.5,20"/>
<linearGradient id="SVGID_00000109716961736161263680000017491103650881584314_" gradientUnits="userSpaceOnUse" x1="34.7594" y1="-25.1809" x2="4.2594" y2="-6.2209" gradientTransform="matrix(1 0 0 -1 0 2.55)">
	<stop  offset="0.29" style="stop-color:#66FF33"/>
	<stop  offset="1" style="stop-color:#66FF66"/>
</linearGradient>
<path style="fill:url(#SVGID_00000109716961736161263680000017491103650881584314_);" d="M32.3,0c0,17.9-14.5,32.3-32.3,32.3V11.9
	C0,5.3,5.3,0,11.9,0H32.3z"/>
<path class="st3" d="M64.2,57.2l-3.3,3.1c-0.3,0.3-0.5,0.6-0.6,1c-0.2,0.9-0.7,2.6-1,4.3c-0.1,0.5-0.5,0.8-1,0.8l0,0
	c-0.5,0-0.9-0.3-1-0.8l-1.1-4.3c-0.1-0.4-0.3-0.7-0.6-1l-3.3-3.1c-0.4-0.4-0.4-1,0-1.4c0.2-0.2,0.5-0.3,0.8-0.3l5,0.7h0.3l0.4,0
	l4.6-0.6c0.4,0,0.8,0.2,1,0.6C64.6,56.4,64.5,56.9,64.2,57.2 M69.2,56.1c0-2.1,0.6-4.3,1.7-6.1c0.6-1,0.7-2.2,0.3-3.3L71,46.9
	c-2.1,1.6-5,1.7-7.1,0.1c0,2-1.9,3.8-4.3,4c-0.3,0-0.5,0-0.8,0c-2.8,0-5.1-1.8-5.1-4.1c-2.1,1.6-5.1,1.6-7.1-0.1
	c-0.3-0.2-0.5-0.5-0.8-0.8c-0.9,1.2-0.9,2.8-0.2,4.1c1,1.8,1.5,3.9,1.5,5.9c0,2.1-0.6,4.3-1.7,6.1c-0.8,1.4-0.7,3.2,0.4,4.5
	c2.9,3.4,7.5,6.3,11.8,6.7h1.1c5.1,0,9.1-3.2,11.9-7.3c0.8-1.2,0.9-2.8,0.2-4.1C69.7,60.2,69.2,58.2,69.2,56.1"/>
<path class="st8" d="M64.2,57.2l-3.3,3.1c-0.3,0.3-0.5,0.6-0.6,1c-0.2,0.9-0.7,2.6-1,4.3c-0.1,0.5-0.5,0.8-1,0.8l0,0
	c-0.5,0-0.9-0.3-1-0.8l-1.1-4.3c-0.1-0.4-0.3-0.7-0.6-1l-3.3-3.1c-0.4-0.4-0.4-1,0-1.4c0.2-0.2,0.5-0.3,0.8-0.3l5,0.7h0.3l0.4,0
	l4.6-0.6c0.4,0,0.8,0.2,1,0.6C64.6,56.4,64.5,56.9,64.2,57.2"/>
</svg>
